<?xml version="1.0" encoding="utf-8"?>
<!-- Generator: Adobe Illustrator 25.0.0, SVG Export Plug-In . SVG Version: 6.00 Build 0)  -->
<svg version="1.1" id="Calque_1" xmlns="http://www.w3.org/2000/svg" xmlns:xlink="http://www.w3.org/1999/xlink" x="0px" y="0px"
	 viewBox="0 0 64 80" style="enable-background:new 0 0 64 80;" xml:space="preserve">
<style type="text/css">
	.st0{fill:#FFFFFF;}
</style>
<g>
	<path class="st0" d="M49.5,35.1l1.7-1.7c1.6-1.6,1.8-4.2,0.3-5.9c-0.6-0.6-1.3-1.1-2.1-1.3l0.3-0.4c1.6-1.6,1.8-4.2,0.3-5.9
		c-0.8-0.9-1.9-1.4-3-1.4c-1.2,0-2.3,0.4-3.1,1.2L43.7,20C43,19.3,42,18.9,41,18.8c-1.1,0-2.3,0.4-3.1,1.2l-2,2
		c-0.5-1.9-2.1-3.2-4.1-3.2h0c-1.1,0-2.2,0.4-2.9,1.2l-7.6,7.6c-0.1-1.2-0.7-2.4-1.6-3.2c-1.2-1.1-3.1-1.1-4.3,0.1l-7.2,7.2
		c-6.6,6.4-7,16.8-0.9,23.7c4.1,4.6,10.4,6.5,16.3,5.1c0.8,0.1,1.5,0.2,2.3,0.2c4.5,0,8.8-1.8,11.9-5l13.5-13.5l0,0
		c1.6-1.6,1.8-4.2,0.3-5.9C51.1,35.7,50.3,35.3,49.5,35.1z M50,28.8c0.8,0.9,0.7,2.3-0.2,3.1l-4.3,4.3l0,0l-0.2,0.2
		c0,0-0.1,0-0.1-0.1c-0.1-0.1-0.1-0.1-0.2-0.2s-0.2-0.1-0.3-0.2c-0.1,0-0.1-0.1-0.2-0.1c-0.1-0.1-0.2-0.1-0.3-0.2
		c-0.1,0-0.1-0.1-0.2-0.1c-0.2-0.1-0.4-0.1-0.6-0.2l1.4-1.4l0.3-0.3c0.2-0.2,0.3-0.4,0.5-0.6c0.1-0.1,0.1-0.2,0.2-0.3
		c0.1-0.1,0.1-0.2,0.2-0.3s0.1-0.3,0.2-0.4c0,0,0-0.1,0-0.1c0.2-0.5,0.3-1.1,0.2-1.7v0c0-0.2,0-0.4-0.1-0.6c0,0,0-0.1,0-0.1
		c0-0.1,0-0.2-0.1-0.3l0.5-0.5l0,0c0.4-0.4,1-0.6,1.6-0.6C49,28.1,49.6,28.3,50,28.8z M45.3,21.2c0.4-0.4,1-0.7,1.6-0.6
		c0.6,0,1.2,0.3,1.6,0.7c0.8,0.9,0.7,2.3-0.2,3.1l-2.9,2.9l0,0l0,0l-0.2,0.2c0,0-0.1,0-0.1-0.1c-0.1-0.1-0.2-0.1-0.2-0.2
		s-0.2-0.1-0.2-0.2s-0.2-0.1-0.2-0.2s-0.2-0.1-0.3-0.1c-0.1,0-0.2-0.1-0.2-0.1c-0.2-0.1-0.4-0.1-0.5-0.2h0l0.4-0.4
		c0.2-0.2,0.4-0.4,0.5-0.6c0,0,0-0.1,0.1-0.1c0.1-0.2,0.2-0.4,0.3-0.6c0-0.1,0.1-0.1,0.1-0.2c0.1-0.2,0.2-0.4,0.2-0.7
		c0-0.1,0-0.1,0-0.2c0-0.2,0.1-0.3,0.1-0.5c0-0.1,0-0.2,0-0.3c0-0.1,0-0.3,0-0.4c0-0.1,0-0.2,0-0.3c0-0.2-0.1-0.4-0.1-0.6L45.3,21.2
		z M13.1,57.4c-1.7-0.8-3.1-2-4.4-3.3c-5.4-6.1-5-15.3,0.8-20.9l7.2-7.2c0.2-0.2,0.5-0.3,0.8-0.3c0.3,0,0.5,0.1,0.7,0.3
		c1.3,1.2,1.4,3.3,0.2,4.6c0,0,0,0.1-0.1,0.1l-6.8,6.8c-0.4,0.4-0.4,1,0,1.4c0.4,0.4,1,0.4,1.4,0c0,0,0,0,0,0l6.8-6.8l10.5-10.5
		c0.4-0.4,1-0.6,1.5-0.6l0,0c1.2,0,2.2,1,2.2,2.2c0,0.6-0.2,1.1-0.6,1.5L22.1,35.8c-0.4,0.4-0.4,1,0,1.4c0.4,0.4,1,0.4,1.4,0
		c0,0,0,0,0,0L34.8,26l4.5-4.5c0.9-0.9,2.2-0.9,3.1,0c0,0,0.1,0.1,0.1,0.1c0.3,0.3,0.5,0.7,0.5,1.1c0,0,0,0.1,0,0.1
		c0,0.1,0,0.2,0,0.3c0,0,0,0.1,0,0.1c0,0.1,0,0.2,0,0.3c0,0,0,0.1,0,0.1c0,0.1-0.1,0.2-0.1,0.3c0,0,0,0,0,0.1
		c-0.1,0.3-0.3,0.5-0.5,0.7L40,27l-0.5,0.5l0,0l0,0v0l0,0L26.6,40.3c-0.4,0.4-0.4,1,0,1.4c0.4,0.4,1,0.4,1.4,0c0,0,0,0,0,0L40.8,29
		c0,0,0.1-0.1,0.1-0.1c0.4-0.3,0.9-0.5,1.4-0.5c0,0,0,0,0.1,0c0.1,0,0.3,0,0.4,0.1c0.4,0.1,0.8,0.3,1.1,0.7c0.2,0.3,0.4,0.6,0.5,0.9
		c0.2,0.8-0.1,1.6-0.7,2.2l-0.2,0.2l-4.1,4c0,0,0,0,0,0l-8.4,8.4c-0.4,0.4-0.4,1,0,1.4c0.4,0.4,1,0.4,1.4,0c0,0,0,0,0,0l8.4-8.4
		c0.3-0.3,0.7-0.5,1.1-0.6l0,0c0.1,0,0.3,0,0.4,0c0.1,0,0.3,0,0.4,0.1l0,0c0.1,0,0.1,0,0.1,0c0.4,0.1,0.7,0.3,1,0.6
		c0.1,0.1,0.2,0.2,0.2,0.3c0.5,0.9,0.3,2.1-0.5,2.8L30.4,54.6c-0.3,0.3-0.6,0.5-0.9,0.8c-0.1,0-0.1,0.1-0.2,0.1
		c-0.2,0.2-0.5,0.4-0.7,0.6c-0.1,0.1-0.2,0.1-0.3,0.2c-0.2,0.1-0.4,0.3-0.6,0.4c-0.1,0.1-0.2,0.1-0.4,0.2c-0.2,0.1-0.4,0.2-0.6,0.3
		c-0.1,0.1-0.3,0.1-0.4,0.2c-0.2,0.1-0.4,0.2-0.6,0.3c-0.2,0.1-0.3,0.1-0.5,0.2s-0.3,0.1-0.5,0.2c-0.2,0.1-0.4,0.1-0.6,0.2
		c0,0-0.1,0-0.1,0c-0.3,0.1-0.6,0.2-0.9,0.2c0,0,0,0,0,0C19.9,59.4,16.3,59,13.1,57.4z M36.4,54.3c-2.1,2.1-4.7,3.5-7.6,4.1
		c0.1,0,0.1-0.1,0.2-0.1c0.3-0.2,0.6-0.4,0.9-0.7c0.2-0.1,0.4-0.3,0.5-0.4c0.4-0.3,0.7-0.6,1.1-1c0.1-0.1,0.2-0.2,0.3-0.2l13.5-13.5
		c0.2-0.2,0.3-0.4,0.5-0.6c0-0.1,0.1-0.1,0.1-0.2c0.1-0.1,0.2-0.3,0.2-0.4c0.1-0.1,0.1-0.2,0.2-0.3c0-0.1,0.1-0.2,0.1-0.2
		c0.2-0.5,0.2-1.1,0.2-1.6c0,0,0-0.1,0-0.1c0-0.2,0-0.3-0.1-0.5c0-0.1,0-0.1,0-0.2s0-0.2-0.1-0.2l0.5-0.5l0,0c0.9-0.9,2.2-0.9,3.1,0
		c0,0,0.1,0.1,0.1,0.1c0.8,0.9,0.7,2.3-0.2,3.1L36.4,54.3z"/>
	<path class="st0" d="M60.7,7.3c-0.4-0.4-1-0.4-1.4,0l-6,6c-0.4,0.4-0.4,1,0,1.4c0.4,0.4,1,0.4,1.4,0c0,0,0,0,0,0l6-6
		C61.1,8.3,61.1,7.7,60.7,7.3z"/>
	<path class="st0" d="M59.6,15.1l-4,2c-0.5,0.2-0.7,0.8-0.4,1.3c0.2,0.5,0.8,0.7,1.3,0.4l4-2c0.5-0.2,0.7-0.8,0.4-1.3
		C60.6,15.1,60,14.9,59.6,15.1z"/>
	<path class="st0" d="M49.5,12.9c0.5,0.3,1.1,0.1,1.4-0.3l3-5C54.1,7,54,6.4,53.5,6.1C53,5.9,52.4,6,52.1,6.5l-3,5
		C48.9,12,49,12.6,49.5,12.9z"/>
	<path class="st0" d="M25.1,11.4c0.2,0.5,0.8,0.7,1.3,0.5c0.5-0.2,0.7-0.8,0.5-1.3l-3-7c-0.2-0.5-0.8-0.7-1.3-0.5
		c-0.5,0.2-0.7,0.8-0.5,1.3L25.1,11.4z"/>
	<path class="st0" d="M30,12c0.6,0,1-0.4,1-1V5c0-0.6-0.4-1-1-1s-1,0.4-1,1v6C29,11.6,29.4,12,30,12z"/>
	<path class="st0" d="M21.2,13.6c0.3,0.4,1,0.5,1.4,0.2s0.5-1,0.2-1.4l0,0l-4-5c-0.3-0.4-1-0.5-1.4-0.2s-0.5,1-0.2,1.4l0,0
		L21.2,13.6z"/>
</g>
</svg>
